<svg xmlns="http://www.w3.org/2000/svg" width="512" height="512" viewBox="0 0 512 512"><path d="M118.672 424.778c78.74 6.52 50.544-77.132 123.4-77.903l31.55 26.338c7.864 95.052-108.413 116.275-154.95 51.565zm241.453-122.142c24.493-38.44 100.367-167.347 100.367-167.347 6.035-10.688-7.377-21.853-16.748-13.966 0 0-112.82 98.095-146.1 129.184-26.3 24.584-26.418 35.815-34.936 76.335l28.835 24.04c38.224-15.71 49.22-17.837 68.582-48.247zm-205.98 66.553c11.434-19.48 30.01-51.115 76.344-56.01 7.443-35.825 10.427-56.646 43.72-87.76 23.57-22.01 84.776-75.69 120.533-106.92-17.166-37.904-71.08-69.06-140.382-68.49-113.727.93-205.258 93.803-204.353 207.564.402 49.974 18.558 95.62 48.415 131.06 27.76 7.377 40.786 5.986 55.724-19.445zM273.474 97.35c18.91-.11 34.416 15.12 34.6 34.04.067 18.935-15.138 34.483-34.098 34.61-18.977.158-34.466-15.105-34.567-34.065-.2-18.987 15.053-34.435 34.065-34.585zm-102.932 34.34c18.91-.175 34.468 15.063 34.535 34.04.2 18.994-15.105 34.425-33.998 34.6-18.977.135-34.483-15.11-34.602-34.114-.15-18.926 15.055-34.4 34.066-34.525zm-34.4 102.974c18.995-.125 34.5 15.146 34.602 34.072.167 18.952-15.104 34.468-34.098 34.6-18.977.136-34.417-15.12-34.517-34.08-.168-18.968 15.103-34.416 34.014-34.592zm172.2 146.46c.37 38.422-15.137 63.837-28.865 78.74-.252.268-.537.503-.79.754 90.21-10.126 155.556-73.88 107.56-135.42-23.57 35.138-43.505 41.91-77.904 55.925z"/></svg>