<svg xmlns="http://www.w3.org/2000/svg" width="512" height="512" viewBox="0 0 512 512"><path d="M69.973 50v288.55h373.23V50H69.972zm335.08 250.404H108.12l-.003-212.26h296.936v212.26zm-165.035-105.14l-57.246 53.28-20.684-19.063 36.758-34.218-36.81-34.268 20.687-19.06 57.295 53.33zm101.34 25.895h-85.49v26.5h85.49v-26.5zm101.843 147H68.8V462h374.4v-93.84zM93.7 435.662l16.462-41.16h19.89l-16.464 41.16h-19.89zm32.236 0l16.463-41.16h19.886l-16.463 41.16h-19.887zm32.232 0l16.463-41.16h19.89l-16.465 41.16h-19.887zm32.236 0l16.46-41.16h19.888l-16.463 41.16h-19.886zm52.12 0h-19.888l16.467-41.16h19.885l-16.463 41.16zm156.224-6.834c-7.59 0-13.744-6.155-13.744-13.75 0-7.59 6.154-13.743 13.744-13.743 7.594 0 13.748 6.154 13.748 13.744 0 7.593-6.154 13.748-13.748 13.748z"/></svg>