<svg xmlns="http://www.w3.org/2000/svg" width="512" height="512" viewBox="0 0 512 512"><path d="M273.37 331.66c0 20.246-16.444 36.064-50.482 36.064-26.625 0-45.852-16.854-45.852-37.1 0-19.84 22.562-36.957 49.186-36.664 29.54 0 47.147 18.398 47.147 37.7zM462.416 257c0 113.77-92.23 206-206 206s-206-92.23-206-206 92.23-206 206-206 206 92.23 206 206zm-166.114 72.305c0-18.69-6.98-30.903-28.096-46.725-21.417-15.62-26.65-24.443-6.208-40.248 11.518-8.906 19.59-20.778 19.59-35.436 0-15.97-6.53-30.457-18.81-37.492h17.405L295 153.854H228.7c-41.39 0-61.685 24.808-61.685 52.097 0 27.89 19.132 49.855 56.492 49.855-5.792 11.693-3.466 22.494 6.01 30.217-63.806 0-77.46 27.998-77.46 49.566 0 27.945 32.123 44.56 70.643 44.56 52.67-.002 73.605-27.914 73.605-50.843zM382.776 187.5h-30.59v-30.588h-15.292V187.5h-30.59v15.294h30.59v30.588h15.293v-30.588h30.59V187.5zM254.95 207.894c-3.084-23.466-18.372-42.72-36.235-43.256-17.87-.532-29.854 17.427-26.767 40.9 3.085 23.466 20.067 39.858 37.94 40.397 17.862.532 28.143-14.572 25.06-38.04z"/></svg>